<svg width="34" height="35" fill="none" xmlns="http://www.w3.org/2000/svg"><path d="M4.622 15.864c-.396.407-.618.96-.618 1.537 0 .576.222 1.129.618 1.537l7.965 8.204c.197.202.43.362.686.471a2.061 2.061 0 0 0 2.303-.471 2.18 2.18 0 0 0 .458-.706 2.232 2.232 0 0 0 0-1.665 2.18 2.18 0 0 0-.458-.706l-4.36-4.49H27.46c.56 0 1.097-.229 1.493-.636.397-.408.62-.962.62-1.538 0-.577-.223-1.13-.62-1.538a2.082 2.082 0 0 0-1.493-.637H11.216l4.36-4.49c.396-.408.618-.961.618-1.538 0-.577-.223-1.13-.619-1.538a2.082 2.082 0 0 0-1.494-.637c-.56 0-1.098.23-1.494.638l-7.965 8.203Z" fill="#fff" fill-opacity=".85"/></svg>