<svg width="36" height="36" fill="none" xmlns="http://www.w3.org/2000/svg"><path d="M28.104 4.438a2.958 2.958 0 0 1 2.959 2.958v20.708a2.958 2.958 0 0 1-2.959 2.959H7.396a2.958 2.958 0 0 1-2.958-2.959V7.396a2.958 2.958 0 0 1 2.958-2.958h20.708zm-.74 22.927v-7.84a4.822 4.822 0 0 0-4.822-4.822c-1.257 0-2.721.77-3.431 1.923v-1.642h-4.127v12.38h4.127v-7.292c0-1.139.917-2.07 2.056-2.07a2.07 2.07 0 0 1 2.07 2.07v7.293h4.128zM10.178 12.662a2.485 2.485 0 0 0 2.485-2.485c0-1.376-1.11-2.5-2.485-2.5a2.5 2.5 0 0 0-2.5 2.5 2.494 2.494 0 0 0 2.5 2.485zm2.056 14.703V14.984H8.135v12.38h4.098z" fill="#fff"/></svg>