<svg width="36" height="36" fill="none" xmlns="http://www.w3.org/2000/svg"><path d="M17.75 2.959C9.587 2.959 2.96 9.586 2.96 17.751s6.627 14.791 14.792 14.791c8.15 0 14.791-6.626 14.791-14.791S25.901 2.959 17.751 2.959zm9.77 6.819a12.576 12.576 0 0 1 2.855 7.86c-.415-.08-4.587-.93-8.79-.4-.097-.21-.178-.434-.273-.659a37.333 37.333 0 0 0-.834-1.828c4.652-1.893 6.77-4.621 7.043-4.973zm-9.77-4.637c3.21 0 6.145 1.204 8.376 3.177-.225.32-2.135 2.871-6.627 4.556-2.07-3.802-4.363-6.915-4.717-7.396.973-.227 1.97-.34 2.969-.337zm-5.373 1.188a79.732 79.732 0 0 1 4.684 7.3c-5.905 1.572-11.119 1.538-11.68 1.538a12.693 12.693 0 0 1 6.996-8.838zM5.108 17.765v-.384c.548.015 6.674.096 12.98-1.797.37.705.706 1.427 1.026 2.149-.16.049-.337.096-.497.145-6.514 2.1-9.98 7.844-10.268 8.326a12.605 12.605 0 0 1-3.24-8.439zm12.643 12.628A12.546 12.546 0 0 1 10 27.731c.225-.466 2.793-5.408 9.915-7.895.033-.014.049-.014.08-.032a52.239 52.239 0 0 1 2.697 9.577 12.424 12.424 0 0 1-4.942 1.012zm7.042-2.167c-.127-.769-.802-4.46-2.455-9 3.964-.625 7.43.402 7.861.547a12.525 12.525 0 0 1-5.406 8.453z" fill="#fff"/></svg>