<svg width="51" height="51" fill="none" xmlns="http://www.w3.org/2000/svg"><path d="M43.969 25.362a19.07 19.07 0 0 1-3.18 10.582 18.816 18.816 0 0 1-6.746 6.175 18.544 18.544 0 0 1-8.824 2.23 18.544 18.544 0 0 1-8.824-2.23 18.816 18.816 0 0 1-6.747-6.175 19.135 19.135 0 0 1-3.034-8.223 19.213 19.213 0 0 1 .942-8.726 19.014 19.014 0 0 1 4.717-7.364 18.7 18.7 0 0 1 7.484-4.429 18.525 18.525 0 0 1 8.652-.546 18.63 18.63 0 0 1 7.97 3.452 18.93 18.93 0 0 1 5.584 6.714 19.184 19.184 0 0 1 2.006 8.54z" stroke="#000" stroke-opacity=".95" stroke-width="4.167"/><path d="M27.302 19.032c0 .56-.22 1.096-.61 1.492a2.07 2.07 0 0 1-1.474.618v4.22a6.21 6.21 0 0 0 4.42-1.854 6.37 6.37 0 0 0 1.83-4.476h-4.166zm-2.084 2.11a2.07 2.07 0 0 1-1.473-.618 2.123 2.123 0 0 1-.61-1.492h-4.167a6.37 6.37 0 0 0 1.831 4.476 6.21 6.21 0 0 0 4.42 1.853v-4.22zm-2.083-2.11c0-.56.22-1.096.61-1.492a2.07 2.07 0 0 1 1.473-.617v-4.22a6.21 6.21 0 0 0-4.419 1.854 6.37 6.37 0 0 0-1.83 4.475h4.166zm2.083-2.11a2.07 2.07 0 0 1 1.474.618c.39.396.61.933.61 1.492h4.166a6.37 6.37 0 0 0-1.83-4.475 6.21 6.21 0 0 0-4.42-1.854v4.22zM10.981 37.716l-1.998-.602-.323 1.104.74.871 1.581-1.373zm28.475 0 1.583 1.373.738-.871-.323-1.104-1.998.602zM18.968 33.8h12.5v-4.22h-12.5v4.22zm0-4.22c-2.243 0-4.427.734-6.226 2.091a10.553 10.553 0 0 0-3.759 5.443l3.994 1.203a6.334 6.334 0 0 1 2.257-3.264 6.202 6.202 0 0 1 3.734-1.253v-4.22zm6.25 12.659a16.452 16.452 0 0 1-6.967-1.541 16.647 16.647 0 0 1-5.689-4.356L9.4 39.09a20.82 20.82 0 0 0 7.11 5.442 20.574 20.574 0 0 0 8.708 1.927v-4.22zm6.25-8.439c2.828 0 5.221 1.903 5.992 4.519l3.994-1.205a10.556 10.556 0 0 0-3.76-5.442 10.335 10.335 0 0 0-6.226-2.091v4.22zm6.407 2.542a16.648 16.648 0 0 1-5.689 4.356 16.452 16.452 0 0 1-6.968 1.54v4.22a20.573 20.573 0 0 0 8.708-1.927 20.826 20.826 0 0 0 7.113-5.442l-3.164-2.747z" fill="#000" fill-opacity=".95"/></svg>