<svg width="51" height="51" fill="none" xmlns="http://www.w3.org/2000/svg"><path d="M43.906 15.441a2.104 2.104 0 0 0 .61-1.487 2.125 2.125 0 0 0-.61-1.488l-5.896-5.97a2.073 2.073 0 0 0-1.468-.617 2.052 2.052 0 0 0-1.47.617l-9.353 9.472-8.104-8.206a4.138 4.138 0 0 0-5.896 0L7.76 11.77a4.265 4.265 0 0 0 0 5.97l8.105 8.207-9.396 9.515v8.945h8.833l9.417-9.536 8.104 8.207c1.98 2.004 4.646 1.266 5.896 0l3.958-4.008a4.265 4.265 0 0 0 0-5.97l-8.104-8.208 9.333-9.451zm-33.187-.696 3.937-4.009 2.646 2.68-2.458 2.51 2.937 2.975 2.48-2.51 2.5 2.531-3.959 4.008-8.083-8.185zM34.115 30.44l-2.48 2.51 2.938 2.975 2.48-2.51 2.645 2.679-3.958 4.008-8.105-8.206 3.959-4.009 2.52 2.553zm-20.542 9.747h-2.938v-2.975l20.021-20.274 2.709 2.742.229.232-20.021 20.275zm20.02-26.245 2.938-2.975 2.938 2.975-2.938 2.975-2.937-2.975z" fill="#000" fill-opacity=".95"/></svg>