<svg width="67" height="65" fill="none" xmlns="http://www.w3.org/2000/svg"><path d="M65.5 32.5c0 17.078-14.284 31-32 31s-32-13.922-32-31 14.284-31 32-31 32 13.922 32 31z" fill="url(#a)" stroke="url(#b)" stroke-width="3"/><path d="M10.5 21.266h6.906v9.265h6.375v4.078h-6.375V42H10.5V21.266zm8 4.14v-4.14h10.531v6.875h-6.906v-2.735H18.5zm12.797-4.14h7.344l5.562 9.218 4.375-7.5v10.438L43.594 42 31.297 21.266zM49.594 42V21.266H56.5V42h-6.906zM31.28 42V23.187l6.453 10.829V42h-6.453z" fill="#fff"/><defs><linearGradient id="a" x1="33.924" y1="0" x2="33.922" y2="65" gradientUnits="userSpaceOnUse"><stop offset=".63" stop-color="#1D1D1D"/><stop offset="1" stop-color="#242424"/></linearGradient><linearGradient id="b" x1="67" y1="32.5" x2="0" y2="32.5" gradientUnits="userSpaceOnUse"><stop stop-color="#D9D9D9"/><stop offset=".51" stop-color="#979696" stop-opacity=".74"/><stop offset="1" stop-color="#D9D8D8"/></linearGradient></defs></svg>